<svg width="170" height="52" viewBox="0 0 170 52" fill="none" xmlns="http://www.w3.org/2000/svg">
<g id="amazon 1" clip-path="url(#clip0_25438_4397)">
<path id="Vector" d="M109.661 6.66889H99.0705V0.866089H118.811V6.06262L108.81 20.1972C110.734 20.3166 112.645 20.5947 114.522 21.0286C116.313 21.5188 118.056 22.1681 119.731 22.9687V28.7888C116.302 27.6537 112.755 26.9099 109.158 26.5716C105.544 26.7974 101.983 27.5442 98.5844 28.7888V22.5183L109.731 6.73817L109.661 6.66889ZM25.891 24.9607L23.0263 22.1892V6.40906C23.0263 3.08328 17.0192 0 12.4531 0C5.87301 0 0.71659 4.19187 0.438803 9.4577H7.38347C7.59955 8.4341 8.1634 7.51641 8.97963 6.85987C9.79586 6.20334 10.8144 5.84828 11.8628 5.85476C12.3684 5.80406 12.8791 5.85936 13.362 6.01713C13.8449 6.1749 14.2895 6.43165 14.6671 6.7709C15.0447 7.11014 15.3471 7.52441 15.5548 7.9871C15.7626 8.4498 15.871 8.95071 15.8733 9.4577V11.952H10.144C8.76778 11.9323 7.4042 12.2162 6.1508 12.7835C1.01174 15.0007 -1.28 20.2665 0.71659 24.6835C2.71318 29.1006 8.44254 31.058 13.5816 28.8408C14.954 28.3572 16.1589 27.4916 17.0539 26.3464L20.7867 29.9667L25.9952 24.9607H25.891ZM8.6856 23.575C6.94943 21.8428 7.53973 19.1406 9.53632 17.2005C10.0725 16.6268 10.7779 16.2385 11.5503 16.0919H15.8733V22.1892L15.3004 22.7435C14.4849 23.6565 13.3654 24.2438 12.1493 24.3967C10.9331 24.5496 9.70261 24.2576 8.6856 23.575ZM95.6155 24.9607L92.7508 22.1892V6.40906C92.7856 3.08328 86.8132 0 82.2123 0C75.6322 0 70.4932 4.15723 70.198 9.42305H77.1427C77.3681 8.41028 77.9331 7.50459 78.7445 6.85574C79.5558 6.2069 80.5648 5.85377 81.6047 5.85476C82.1089 5.80663 82.6177 5.86385 83.0985 6.02278C83.5794 6.18171 84.0217 6.43887 84.3974 6.77785C84.7731 7.11683 85.0739 7.53021 85.2806 7.99161C85.4873 8.45301 85.5953 8.95232 85.5978 9.4577V11.952H79.6254C78.2491 11.9305 76.8851 12.2145 75.6322 12.7835C70.4237 15.0007 68.2014 20.2665 70.198 24.6835C72.1946 29.1006 77.9066 31.058 83.063 28.8408C84.4355 28.3572 85.6404 27.4916 86.5354 26.3464L90.2855 29.9494L95.6155 24.9607ZM78.74 23.575C77.0038 21.8428 77.5941 19.1406 79.6081 17.2005C80.1373 16.6271 80.8373 16.2385 81.6047 16.0919H85.893V22.1892L85.6152 22.4664C83.3235 24.6835 80.4067 24.9607 78.6705 23.575H78.74ZM56.274 0C54.7754 0.0404572 53.3317 0.570909 52.1649 1.50979C50.998 2.44866 50.1725 3.74397 49.8154 5.19654C48.4786 1.87075 46.0479 0 43.0964 0C40.145 0 37.7143 2.49434 36.6379 5.82012V0.866089H29.9189V29.9667H36.6379V11.1206C36.6144 10.577 36.7018 10.0343 36.8947 9.5254C37.0877 9.0165 37.3822 8.55199 37.7605 8.16004C38.1387 7.76808 38.5928 7.45684 39.0952 7.24519C39.5976 7.03353 40.1378 6.92586 40.6832 6.92871C41.4031 7.12771 42.0566 7.5154 42.5756 8.0515C43.0946 8.58761 43.4603 9.25258 43.6347 9.97735V29.6895H50.3536V10.2891C50.5207 9.41804 50.9898 8.63342 51.6787 8.07282C52.3676 7.51223 53.2322 7.21144 54.1211 7.22319C54.8998 7.40009 55.6034 7.81608 56.1328 8.41265C56.6622 9.00922 56.9909 9.75634 57.0726 10.549V29.9494H63.8089V7.77748C62.7325 3.36043 60.7706 0 56.274 0Z" fill="white"/>
<path id="Vector_2" d="M63.7188 8.01999V10.012C63.8646 9.70011 63.9402 9.36014 63.9402 9.01599C63.9402 8.67184 63.8646 8.33187 63.7188 8.01999ZM162.298 0C160.689 0.114242 159.155 0.726191 157.91 1.7507C156.666 2.77521 155.772 4.16133 155.354 5.71619V0.848768H148.183V29.447H155.388V10.9127C155.395 10.357 155.513 9.80833 155.737 9.2993C155.96 8.79026 156.284 8.33133 156.689 7.94986C157.094 7.56838 157.572 7.27217 158.094 7.07888C158.617 6.88558 159.172 6.79917 159.729 6.82478C160.478 6.99745 161.167 7.36612 161.725 7.89285C162.284 8.41957 162.691 9.08529 162.906 9.82145V29.1352H169.538V6.61692C169.538 2.80613 165.493 0.0866089 162.316 0.0866089L162.298 0ZM132.054 0C125.11 0 119.658 6.51299 119.658 14.966C119.658 23.1246 125.144 29.9147 132.054 29.9147C138.964 29.9147 144.433 23.4017 144.433 14.966C144.103 6.82478 138.686 0 132.054 0ZM135.804 20.1106C135.742 21.0571 135.319 21.9438 134.621 22.5883C133.924 23.2327 133.005 23.5858 132.054 23.575H131.759C130.809 23.5858 129.89 23.2327 129.192 22.5883C128.495 21.9438 128.071 21.0571 128.009 20.1106V9.5443C128.071 8.59779 128.495 7.71106 129.192 7.06662C129.89 6.42217 130.809 6.06905 131.759 6.07995H132.054C133.005 6.06905 133.924 6.42217 134.621 7.06662C135.319 7.71106 135.742 8.59779 135.804 9.5443V20.1106Z" fill="white"/>
<path id="Vector_3" d="M23.2664 32.08C36.2518 40.0802 51.1357 44.492 66.3928 44.8635C91.029 45.1753 99.9877 37.4325 102.227 36.8435C104.467 36.2546 103.963 38.9221 102.227 40.4118C100.491 41.9015 79.553 53.5071 63.0247 51.7229C46.4963 49.9388 31.1139 42.7849 22.9886 34.1587C20.4712 31.1793 23.2664 32.08 23.2664 32.08Z" fill="white"/>
<path id="Vector_4" d="M97.2304 34.4702C97.2304 34.4702 108.394 32.3569 109.384 34.4702C110.373 36.5835 107.213 44.3956 105.911 46.4915C104.974 48.0158 107.161 48.3103 108.081 47.4096C109.019 46.1971 114.28 39.8919 113.672 32.9632C113.672 30.5555 111.814 29.9492 108.463 29.9492C104.168 30.2858 99.9512 31.2851 95.963 32.9112C95.6678 33.2057 95.338 34.6434 97.213 34.4182L97.2304 34.4702Z" fill="white"/>
</g>
<defs>
<clipPath id="clip0_25438_4397">
<rect width="170" height="52" fill="white"/>
</clipPath>
</defs>
</svg>
