<svg width="33" height="33" viewBox="0 0 33 33" fill="none" xmlns="http://www.w3.org/2000/svg">
<g id="&#232;&#139;&#185;&#230;&#158;&#156; 1">
<path id="Vector" d="M24.3434 9.49828C24.3072 4.14613 27.3147 4.00762 27.4499 3.92188C25.7582 1.44861 23.1266 1.05949 22.1901 1.02321C19.9509 0.795672 17.8206 2.31591 16.6829 2.31591C15.5485 2.31591 13.7941 1.01992 11.9375 1.05289C9.49724 1.08917 7.24492 2.4676 5.9852 4.65397C3.44927 9.05639 5.33555 15.5759 7.80882 19.144C9.01578 20.8918 10.4569 22.8539 12.3497 22.7847C14.1701 22.7121 14.8593 21.6041 17.0621 21.6041C19.265 21.6041 19.8817 22.7847 21.8108 22.7451C23.7696 22.7088 25.0129 20.9643 26.2099 19.21C27.5983 17.1819 28.1688 15.3187 28.2017 15.2198C28.1589 15.2 24.3797 13.0664 24.3401 9.49828H24.3434Z" fill="#222222"/>
<path id="Vector_2" d="M16.4922 9.29407C16.4922 5.32365 19.7107 2.10181 23.6845 2.10181C23.6845 6.07553 20.4626 9.29407 16.4922 9.29407Z" fill="#222222"/>
</g>
</svg>
