<svg width="20" height="25" viewBox="0 0 20 25" fill="none" xmlns="http://www.w3.org/2000/svg">
<g id="Group 1912054955">
<path id="Vector" d="M0.665623 0.319824C0.40078 0.61176 0.3125 1.09832 0.3125 1.68219V22.7016C0.3125 23.2854 0.489061 23.772 0.753903 24.0639L0.842183 24.1612L11.4359 12.3865V12.1919L0.665623 0.319824Z" fill="#00D2FF"/>
<path id="Vector_2" d="M14.8789 16.2792L11.3477 12.3867V12.0948L14.8789 8.2023L14.9672 8.29961L19.1164 10.927C20.264 11.7055 20.264 12.8733 19.1164 13.6518L14.8789 16.2792Z" fill="#FFC401"/>
<path id="Vector_3" d="M14.9669 16.1818L11.3474 12.192L0.665405 24.064C1.10681 24.5506 1.72477 24.5506 2.43102 24.1613L14.9669 16.1818Z" fill="#FF3A44"/>
<path id="Vector_4" d="M14.9669 8.20215L2.51928 0.319889C1.72475 -0.16667 1.19507 -0.0693589 0.753662 0.417201L11.4356 12.1919L14.9669 8.20215Z" fill="#01F076"/>
<path id="Vector_5" opacity="0.12" d="M14.8809 16.0845L2.43328 24.064C1.81531 24.5506 1.19735 24.4533 0.755944 24.064L0.667663 23.9667L0.725929 23.9336L0.667663 23.8694C0.461969 23.6427 0.362212 23.2972 0.328665 22.8807L0.325134 22.833L0.340142 22.979C0.394876 23.376 0.536125 23.7079 0.728577 23.9346L0.844224 23.8694C1.28563 24.2587 1.81531 24.356 2.52156 23.8694L14.8809 16.0845ZM20.0011 12.192C20.0011 12.6785 19.7363 13.1651 19.1183 13.5544L14.9691 16.1818L14.8809 16.0845L19.1183 13.457C19.648 13.0678 19.9129 12.6785 20.0011 12.192Z" fill="black"/>
<path id="Vector_6" opacity="0.25" d="M2.51872 0.417014L19.1155 10.9267C19.6452 11.3159 19.9983 11.7052 19.9983 12.1918C19.9983 11.7052 19.7335 11.2186 19.1155 10.8294L2.51872 0.417014C1.37107 -0.458793 0.399986 0.125079 0.399986 1.68207V1.77938C0.311705 0.319703 1.28279 -0.361481 2.51872 0.417014Z" fill="white"/>
</g>
</svg>
