<svg width="176" height="54" viewBox="0 0 176 54" fill="none" xmlns="http://www.w3.org/2000/svg">
<g id="Google-logo 1">
<path id="Vector" d="M21.9764 19.2287V25.0043H35.9639C35.5357 28.2443 34.4414 30.6157 32.7763 32.2826C30.7305 34.3017 27.5429 36.5087 21.9764 36.5087C13.3651 36.5087 6.63304 29.653 6.63304 21.1539C6.63304 12.6548 13.3651 5.79913 21.9764 5.79913C26.6151 5.79913 30.0168 7.60696 32.5146 9.9313L36.6299 5.86957C33.1569 2.53565 28.4944 0 21.9764 0C10.1775 0 0.257812 9.48522 0.257812 21.1304C0.257812 32.7757 10.1775 42.2609 21.9764 42.2609C28.3517 42.2609 33.1569 40.1948 36.9154 36.3443C40.7691 32.5409 41.9823 27.1643 41.9823 22.8443C41.9823 21.5061 41.8871 20.2617 41.673 19.2287H21.9764Z" fill="white"/>
<path id="Vector_2" d="M59.4701 14.5332C51.8341 14.5332 45.6016 20.2619 45.6016 28.1741C45.6016 36.0158 51.8341 41.8149 59.4701 41.8149C67.1061 41.8149 73.3386 36.0393 73.3386 28.1741C73.3386 20.2619 67.1061 14.5332 59.4701 14.5332ZM59.4701 36.4384C55.2833 36.4384 51.6675 33.0341 51.6675 28.1741C51.6675 23.2671 55.2833 19.9097 59.4701 19.9097C63.6568 19.9097 67.2726 23.2671 67.2726 28.1741C67.2726 33.0341 63.6568 36.4384 59.4701 36.4384Z" fill="white"/>
<path id="Vector_3" d="M127.457 17.5851H127.243C125.887 15.9886 123.27 14.533 119.964 14.533C113.065 14.533 107.047 20.473 107.047 28.1738C107.047 35.8277 113.065 41.8147 119.964 41.8147C123.27 41.8147 125.887 40.359 127.243 38.7156H127.457V40.6173C127.457 45.8295 124.626 48.6234 120.083 48.6234C116.372 48.6234 114.064 45.9938 113.113 43.7634L107.832 45.9234C109.354 49.539 113.375 53.9764 120.083 53.9764C127.195 53.9764 133.214 49.8443 133.214 39.7721V15.2373H127.457V17.5851ZM120.487 36.4382C116.3 36.4382 113.113 32.9164 113.113 28.1738C113.113 23.3608 116.3 19.9095 120.487 19.9095C124.626 19.9095 127.862 23.4312 127.862 28.2208C127.885 32.9869 124.626 36.4382 120.487 36.4382Z" fill="white"/>
<path id="Vector_4" d="M90.3998 14.5332C82.7637 14.5332 76.5312 20.2619 76.5312 28.1741C76.5312 36.0158 82.7637 41.8149 90.3998 41.8149C98.0358 41.8149 104.268 36.0393 104.268 28.1741C104.268 20.2619 98.0358 14.5332 90.3998 14.5332ZM90.3998 36.4384C86.213 36.4384 82.5972 33.0341 82.5972 28.1741C82.5972 23.2671 86.213 19.9097 90.3998 19.9097C94.5865 19.9097 98.2023 23.2671 98.2023 28.1741C98.2023 33.0341 94.5865 36.4384 90.3998 36.4384Z" fill="white"/>
<path id="Vector_5" d="M137.969 0.563477H143.94V41.8148H137.969V0.563477Z" fill="white"/>
<path id="Vector_6" d="M162.374 36.4384C159.281 36.4384 157.093 35.0532 155.666 32.3062L174.149 24.7697L173.531 23.2202C172.389 20.168 168.868 14.5332 161.708 14.5332C154.595 14.5332 148.672 20.0506 148.672 28.1741C148.672 35.828 154.524 41.8149 162.374 41.8149C168.702 41.8149 172.365 37.988 173.887 35.781L169.177 32.6819C167.607 34.9358 165.466 36.4384 162.374 36.4384ZM161.946 19.6515C164.396 19.6515 166.489 20.8958 167.179 22.6567L154.69 27.7515C154.69 22.0228 158.806 19.6515 161.946 19.6515Z" fill="white"/>
</g>
</svg>
