<svg width="186" height="62" viewBox="0 0 186 62" fill="none" xmlns="http://www.w3.org/2000/svg">
<g id="619cbf878e9721de86aa4bde_icon-google-play.svg" clip-path="url(#clip0_25438_4590)">
<path id="Vector" d="M175.727 0H9.64791C4.32417 0 0.00842285 4.31575 0.00842285 9.63949V51.5636C0.00842285 56.8874 4.32417 61.2031 9.64791 61.2031H175.727C181.051 61.2031 185.366 56.8874 185.366 51.5636V9.63949C185.366 4.31575 181.051 0 175.727 0Z" fill="white"/>
<path id="Vector_2" d="M17.1697 49.0416L30.1964 35.5097L17.1806 22.002C16.833 22.2122 16.6178 22.6991 16.6178 23.3365V47.7199C16.6224 48.3573 16.8298 48.8087 17.1697 49.0416Z" fill="black"/>
<path id="Vector_3" d="M30.6654 35.1364L34.5456 31.1051L18.744 22.1043C18.4779 21.9437 18.1756 21.8588 17.8678 21.8584L30.6638 35.1348L30.6654 35.1364Z" fill="black"/>
<path id="Vector_4" d="M30.6652 35.8848L17.8287 49.2194C18.1509 49.2249 18.4682 49.1376 18.7454 48.967L34.5782 39.9419L30.6652 35.8848Z" fill="black"/>
<path id="Vector_5" d="M40.2687 34.371L35.0103 31.3701L31.024 35.5115L35.0399 39.6786L40.2671 36.6859C41.3787 36.0501 41.3787 35.0035 40.2687 34.371Z" fill="black"/>
<path id="Vector_6" d="M86.413 31.8788C83.1671 31.8788 80.5156 34.3564 80.5156 37.7749C80.5156 41.1656 83.1671 43.6692 86.413 43.6692C89.6659 43.6692 92.3169 41.1656 92.3169 37.7749C92.3169 34.3564 89.6659 31.8788 86.413 31.8788ZM86.413 41.3475C84.632 41.3475 83.0997 39.873 83.0997 37.7749C83.0997 35.649 84.632 34.2005 86.413 34.2005C88.1936 34.2005 89.7333 35.649 89.7333 37.7749C89.7333 39.873 88.1936 41.3475 86.413 41.3475ZM73.5454 31.8788C70.2926 31.8788 67.6479 34.3564 67.6479 37.7749C67.6479 41.1656 70.2926 43.6692 73.5454 43.6692C76.7964 43.6692 79.4427 41.1656 79.4427 37.7749C79.4427 34.3564 76.7964 31.8788 73.5454 31.8788ZM73.5454 41.3475C71.7627 41.3475 70.2253 39.873 70.2253 37.7749C70.2253 35.649 71.7627 34.2005 73.5454 34.2005C75.3264 34.2005 76.8586 35.649 76.8586 37.7749C76.8586 39.873 75.3264 41.3475 73.5454 41.3475ZM58.2336 33.6859V36.1912H64.1984C64.0238 37.5912 63.5574 38.6204 62.8423 39.3377C61.9717 40.204 60.6156 41.1656 58.2336 41.1656C54.5628 41.1656 51.6884 38.1941 51.6884 34.5123C51.6884 30.8305 54.5628 27.8591 58.2336 27.8591C60.2183 27.8591 61.6625 28.637 62.7283 29.6454L64.4886 27.8798C62.9977 26.4522 61.0147 25.3555 58.2336 25.3555C53.1998 25.3555 48.9694 29.4635 48.9694 34.5123C48.9694 39.5612 53.1998 43.6692 58.2336 43.6692C60.9542 43.6692 62.9977 42.7752 64.6042 41.098C66.2505 39.4468 66.7635 37.1251 66.7635 35.2504C66.7635 34.6683 66.7166 34.1329 66.6286 33.6859H58.2336ZM120.845 35.6282C120.36 34.3096 118.862 31.8788 115.812 31.8788C112.789 31.8788 110.272 34.268 110.272 37.7749C110.272 41.0772 112.763 43.6692 116.102 43.6692C118.802 43.6692 120.36 42.0181 121.001 41.0564L118.997 39.7171C118.329 40.6978 117.418 41.3475 116.102 41.3475C114.794 41.3475 113.856 40.7463 113.255 39.5612L121.116 36.2987L120.845 35.6282ZM112.83 37.5912C112.763 35.318 114.59 34.1537 115.9 34.1537C116.926 34.1537 117.797 34.6681 118.087 35.4047L112.83 37.5912ZM106.441 43.3105H109.024V25.9844H106.441V43.3105ZM102.208 33.1921H102.122C101.542 32.5025 100.434 31.8788 99.0318 31.8788C96.0879 31.8788 93.3967 34.4707 93.3967 37.7939C93.3967 41.0981 96.0879 43.6692 99.0318 43.6692C100.434 43.6692 101.542 43.0403 102.122 42.3299H102.208V43.1754C102.208 45.4296 101.008 46.6407 99.0711 46.6407C97.493 46.6407 96.5128 45.4972 96.1089 44.5356L93.8619 45.4763C94.5097 47.0391 96.2243 48.9624 99.0711 48.9624C102.102 48.9624 104.658 47.1743 104.658 42.8237V32.2374H102.208V33.1921ZM99.253 41.3475C97.472 41.3475 95.9812 39.8523 95.9812 37.7939C95.9812 35.7165 97.472 34.2005 99.253 34.2005C101.008 34.2005 102.392 35.7165 102.392 37.7939C102.392 39.8523 101.008 41.3475 99.253 41.3475ZM132.944 25.9844H126.764V43.3105H129.341V36.7457H132.944C135.807 36.7457 138.614 34.6683 138.614 31.3641C138.614 28.0618 135.8 25.9844 132.944 25.9844ZM133.012 34.3356H129.341V28.3945H133.012C134.936 28.3945 136.034 29.9971 136.034 31.3641C136.034 32.7053 134.936 34.3356 133.012 34.3356ZM148.944 31.8458C147.081 31.8458 145.145 32.6706 144.348 34.4985L146.636 35.4601C147.129 34.4985 148.034 34.1866 148.99 34.1866C150.327 34.1866 151.683 34.9923 151.704 36.4147V36.5966C151.238 36.3265 150.24 35.9261 149.011 35.9261C146.548 35.9261 144.038 37.2862 144.038 39.8245C144.038 42.1462 146.055 43.6415 148.324 43.6415C150.058 43.6415 151.015 42.8566 151.616 41.9435H151.704V43.2828H154.193V36.6365C154.193 33.5646 151.906 31.8458 148.944 31.8458ZM148.633 41.3406C147.79 41.3406 146.615 40.9213 146.615 39.8731C146.615 38.5321 148.08 38.0174 149.348 38.0174C150.483 38.0174 151.015 38.2686 151.704 38.5997C151.502 40.204 150.125 41.3406 148.633 41.3406ZM163.262 32.2253L160.3 39.7362H160.211L157.149 32.2253H154.369L158.971 42.7215L156.346 48.5621H159.039L166.13 32.2253H163.262ZM140.03 43.3105H142.615V25.9844H140.03V43.3105Z" fill="black"/>
<path id="Vector_7" d="M53.0501 20.2638C52.3897 20.2638 51.7806 20.1099 51.2228 19.8022C50.6713 19.488 50.2322 19.0585 49.9052 18.5134C49.5782 17.9621 49.4147 17.3465 49.4147 16.6668C49.4147 15.9872 49.5782 15.3749 49.9052 14.8299C50.2322 14.2785 50.6713 13.8489 51.2228 13.5411C51.7806 13.2269 52.3897 13.0698 53.0501 13.0698C53.5887 13.0698 54.0792 13.166 54.5216 13.3584C54.9704 13.5443 55.3551 13.8104 55.6758 14.1566L54.7813 15.0318C54.5505 14.7882 54.294 14.6055 54.0119 14.4836C53.7361 14.3618 53.4124 14.3009 53.0405 14.3009C52.6173 14.3009 52.2294 14.4003 51.8768 14.599C51.5241 14.7914 51.242 15.0703 51.0304 15.4358C50.8252 15.7948 50.7227 16.2052 50.7227 16.6668C50.7227 17.1285 50.8285 17.542 51.0401 17.9075C51.2516 18.2666 51.5337 18.5455 51.8864 18.7442C52.2454 18.9366 52.6366 19.0328 53.0598 19.0328C53.7009 19.0328 54.2266 18.8436 54.637 18.4653C54.7652 18.3499 54.8775 18.2025 54.9737 18.0229C55.0698 17.8434 55.1403 17.6478 55.1853 17.4362H53.0213V16.3302H56.3971C56.4419 16.5098 56.4644 16.7118 56.4644 16.9361C56.4644 17.3914 56.3938 17.8146 56.2528 18.2056C56.1182 18.5968 55.9097 18.9398 55.6277 19.2347C55.3199 19.5682 54.948 19.8246 54.512 20.0041C54.076 20.1773 53.5887 20.2638 53.0501 20.2638Z" fill="black"/>
<path id="Vector_8" d="M57.899 13.2236H62.2655V14.4547H59.1973V16.0512H61.9577V17.2823H59.1973V18.8788H62.2655V20.1099H57.899V13.2236Z" fill="black"/>
<path id="Vector_9" d="M65.182 14.4547H63.2584V13.2236H68.4039V14.4547H66.4803V20.1099H65.182V14.4547Z" fill="black"/>
<path id="Vector_10" d="M72.0865 13.2236H73.3849V20.1099H72.0865V13.2236Z" fill="black"/>
<path id="Vector_11" d="M76.5335 14.4547H74.61V13.2236H79.7554V14.4547H77.8319V20.1099H76.5335V14.4547Z" fill="black"/>
<path id="Vector_12" d="M86.496 20.2638C85.8228 20.2638 85.2105 20.1068 84.6591 19.7925C84.1141 19.472 83.6845 19.036 83.3703 18.4846C83.0562 17.9332 82.899 17.3273 82.899 16.6668C82.899 16.0064 83.0562 15.4005 83.3703 14.8491C83.6845 14.2977 84.1141 13.8649 84.6591 13.5507C85.2105 13.2302 85.8228 13.0698 86.496 13.0698C87.1693 13.0698 87.7782 13.2302 88.3237 13.5507C88.8746 13.8649 89.3074 14.2977 89.6221 14.8491C89.936 15.4005 90.0934 16.0064 90.0934 16.6668C90.0934 17.3273 89.936 17.9332 89.6221 18.4846C89.3074 19.036 88.8746 19.472 88.3237 19.7925C87.7782 20.1068 87.1693 20.2638 86.496 20.2638ZM86.496 19.0328C86.9192 19.0328 87.3072 18.9334 87.6601 18.7346C88.0125 18.5359 88.2879 18.257 88.4872 17.8979C88.6918 17.5389 88.795 17.1285 88.795 16.6668C88.795 16.2052 88.6918 15.7948 88.4872 15.4358C88.2879 15.0768 88.0125 14.7979 87.6601 14.599C87.3072 14.4003 86.9192 14.3009 86.496 14.3009C86.0729 14.3009 85.685 14.4003 85.3323 14.599C84.9861 14.7979 84.7104 15.0768 84.5052 15.4358C84.3065 15.7948 84.207 16.2052 84.207 16.6668C84.207 17.1285 84.3065 17.5389 84.5052 17.8979C84.7104 18.257 84.9861 18.5359 85.3323 18.7346C85.685 18.9334 86.0729 19.0328 86.496 19.0328Z" fill="black"/>
<path id="Vector_13" d="M91.5162 13.2236H93.0262L95.7961 17.8401H95.873L95.7961 16.5129V13.2236H97.0848V20.1099H95.7191L92.7954 15.2337H92.7184L92.7954 16.561V20.1099H91.5162V13.2236Z" fill="black"/>
</g>
<defs>
<clipPath id="clip0_25438_4590">
<rect width="185.358" height="61.2031" fill="white" transform="translate(0.00842285)"/>
</clipPath>
</defs>
</svg>
