<svg width="186" height="62" viewBox="0 0 186 62" fill="none" xmlns="http://www.w3.org/2000/svg">
<g id="619cbf86ffe78e34b9138bb1_icon-app-store.svg" clip-path="url(#clip0_25438_4605)">
<path id="Vector" d="M176.274 0H10.1948C4.87105 0 0.555298 4.31575 0.555298 9.63949V51.5636C0.555298 56.8874 4.87105 61.2031 10.1948 61.2031H176.274C181.598 61.2031 185.913 56.8874 185.913 51.5636V9.63949C185.913 4.31575 181.598 0 176.274 0Z" fill="white"/>
<path id="Vector_2" d="M56.7194 14.9824V23.6071H59.8333C62.4034 23.6071 63.8916 22.0232 63.8916 19.2679C63.8916 16.5544 62.3914 14.9824 59.8333 14.9824H56.7194ZM58.0581 16.2018H59.6839C61.471 16.2018 62.5288 17.3373 62.5288 19.2858C62.5288 21.2641 61.4889 22.3878 59.6839 22.3878H58.0581V16.2018Z" fill="black"/>
<path id="Vector_3" d="M68.2993 23.7325C70.1999 23.7325 71.3654 22.4594 71.3654 20.3496C71.3654 18.2517 70.194 16.9727 68.2993 16.9727C66.3987 16.9727 65.2272 18.2517 65.2272 20.3496C65.2272 22.4594 66.3927 23.7325 68.2993 23.7325ZM68.2993 22.5909C67.1817 22.5909 66.5541 21.7721 66.5541 20.3496C66.5541 18.939 67.1817 18.1143 68.2993 18.1143C69.411 18.1143 70.0446 18.939 70.0446 20.3496C70.0446 21.7661 69.411 22.5909 68.2993 22.5909Z" fill="black"/>
<path id="Vector_4" d="M81.1369 17.0981H79.8519L78.6923 22.0649H78.5907L77.2519 17.0981H76.0206L74.6819 22.0649H74.5862L73.4207 17.0981H72.1178L73.9108 23.6069H75.2317L76.5705 18.8135H76.6721L78.0169 23.6069H79.3497L81.1369 17.0981Z" fill="black"/>
<path id="Vector_5" d="M82.4615 23.607H83.7465V19.7997C83.7465 18.7837 84.3502 18.1501 85.3005 18.1501C86.2508 18.1501 86.7051 18.6701 86.7051 19.716V23.607H87.9902V19.3933C87.9902 17.8453 87.1892 16.9727 85.7369 16.9727C84.7567 16.9727 84.1111 17.4089 83.7944 18.1322H83.6987V17.0982H82.4615V23.607Z" fill="black"/>
<path id="Vector_6" d="M89.86 23.6071H91.1444V14.5581H89.86V23.6071Z" fill="black"/>
<path id="Vector_7" d="M95.8308 23.7325C97.7316 23.7325 98.8971 22.4594 98.8971 20.3496C98.8971 18.2517 97.7255 16.9727 95.8308 16.9727C93.93 16.9727 92.7584 18.2517 92.7584 20.3496C92.7584 22.4594 93.9239 23.7325 95.8308 23.7325ZM95.8308 22.5909C94.7134 22.5909 94.0857 21.7721 94.0857 20.3496C94.0857 18.939 94.7134 18.1143 95.8308 18.1143C96.9421 18.1143 97.576 18.939 97.576 20.3496C97.576 21.7661 96.9421 22.5909 95.8308 22.5909Z" fill="black"/>
<path id="Vector_8" d="M102.57 22.6327C101.87 22.6327 101.362 22.2921 101.362 21.7064C101.362 21.1325 101.769 20.8278 102.665 20.7679L104.254 20.6664V21.2103C104.254 22.0171 103.537 22.6327 102.57 22.6327ZM102.241 23.7145C103.095 23.7145 103.807 23.344 104.195 22.6925H104.296V23.607H105.533V19.1602C105.533 17.7855 104.614 16.9727 102.981 16.9727C101.505 16.9727 100.454 17.6899 100.322 18.8075H101.565C101.708 18.3474 102.205 18.0844 102.922 18.0844C103.801 18.0844 104.254 18.4728 104.254 19.1602V19.722L102.492 19.8237C100.943 19.9192 100.071 20.5947 100.071 21.7661C100.071 22.9555 100.985 23.7145 102.241 23.7145Z" fill="black"/>
<path id="Vector_9" d="M109.741 23.7146C110.638 23.7146 111.396 23.2903 111.786 22.579H111.887V23.6071H113.118V14.5581H111.833V18.1323H111.737C111.385 17.4151 110.631 16.9907 109.741 16.9907C108.098 16.9907 107.04 18.2937 107.04 20.3497C107.04 22.4117 108.085 23.7146 109.741 23.7146ZM110.106 18.1443C111.181 18.1443 111.857 18.9989 111.857 20.3556C111.857 21.7183 111.187 22.5611 110.106 22.5611C109.018 22.5611 108.367 21.7303 108.367 20.3497C108.367 18.981 109.024 18.1443 110.106 18.1443Z" fill="black"/>
<path id="Vector_10" d="M121.143 23.7325C123.044 23.7325 124.21 22.4594 124.21 20.3496C124.21 18.2517 123.038 16.9727 121.143 16.9727C119.243 16.9727 118.071 18.2517 118.071 20.3496C118.071 22.4594 119.236 23.7325 121.143 23.7325ZM121.143 22.5909C120.026 22.5909 119.398 21.7721 119.398 20.3496C119.398 18.939 120.026 18.1143 121.143 18.1143C122.255 18.1143 122.888 18.939 122.888 20.3496C122.888 21.7661 122.255 22.5909 121.143 22.5909Z" fill="black"/>
<path id="Vector_11" d="M125.758 23.607H127.044V19.7997C127.044 18.7837 127.647 18.1501 128.597 18.1501C129.548 18.1501 130.002 18.6701 130.002 19.716V23.607H131.287V19.3933C131.287 17.8453 130.486 16.9727 129.034 16.9727C128.054 16.9727 127.408 17.4089 127.092 18.1322H126.996V17.0982H125.758V23.607Z" fill="black"/>
<path id="Vector_12" d="M136.901 15.4785V17.1281H135.868V18.2099H136.901V21.8857C136.901 23.1409 137.47 23.6429 138.898 23.6429C139.149 23.6429 139.388 23.613 139.597 23.5772V22.5073C139.418 22.5253 139.304 22.5372 139.107 22.5372C138.467 22.5372 138.187 22.2384 138.187 21.557V18.2099H139.597V17.1281H138.187V15.4785H136.901Z" fill="black"/>
<path id="Vector_13" d="M141.165 23.6071H142.45V19.8057C142.45 18.8196 143.036 18.1561 144.088 18.1561C144.996 18.1561 145.48 18.6821 145.48 19.7221V23.6071H146.766V19.4053C146.766 17.8573 145.911 16.9787 144.524 16.9787C143.544 16.9787 142.857 17.4151 142.54 18.1443H142.438V14.5581H141.165V23.6071Z" fill="black"/>
<path id="Vector_14" d="M151.252 18.0664C152.203 18.0664 152.824 18.7299 152.855 19.7519H149.567C149.639 18.7358 150.303 18.0664 151.252 18.0664ZM152.849 21.8498C152.609 22.3578 152.078 22.6388 151.3 22.6388C150.272 22.6388 149.609 21.9155 149.567 20.774V20.7022H154.164V20.2539C154.164 18.2098 153.07 16.9727 151.258 16.9727C149.424 16.9727 148.258 18.2936 148.258 20.3735C148.258 22.4535 149.399 23.7325 151.264 23.7325C152.752 23.7325 153.793 23.0152 154.086 21.8498H152.849Z" fill="black"/>
<path id="Vector_15" d="M67.7508 48.0884H70.6192L64.3134 30.6235H61.3845L55.0787 48.0884H57.8987L59.4964 43.3681H66.1531L67.7508 48.0884ZM62.7884 33.5283H62.8611L65.4632 41.1896H60.1862L62.7884 33.5283Z" fill="black"/>
<path id="Vector_16" d="M79.5518 34.811C77.7242 34.811 76.1024 35.7067 75.3641 37.1228H75.3036V34.9442H72.774V52.4453H75.4004V45.9338H75.4488C76.2355 47.3862 77.7242 48.2213 79.6123 48.2213C82.9165 48.2213 85.1071 45.5829 85.1071 41.5162C85.1071 37.4374 82.9044 34.811 79.5518 34.811ZM78.8861 45.9943C76.7923 45.9943 75.3883 44.2031 75.3762 41.5162C75.3883 38.8413 76.8044 37.038 78.8861 37.038C81.0163 37.038 82.4202 38.8051 82.4202 41.5162C82.4202 44.2394 81.0163 45.9943 78.8861 45.9943Z" fill="black"/>
<path id="Vector_17" d="M94.4733 34.811C92.6459 34.811 91.0241 35.7067 90.2861 37.1228H90.2258V34.9442H87.6959V52.4453H90.322V45.9338H90.3709C91.1578 47.3862 92.6459 48.2213 94.5345 48.2213C97.8386 48.2213 100.029 45.5829 100.029 41.5162C100.029 37.4374 97.8264 34.811 94.4733 34.811ZM93.8079 45.9943C91.7139 45.9943 90.3106 44.2031 90.2984 41.5162C90.3106 38.8413 91.7262 37.038 93.8079 37.038C95.9378 37.038 97.342 38.8051 97.342 41.5162C97.342 44.2394 95.9378 45.9943 93.8079 45.9943Z" fill="black"/>
<path id="Vector_18" d="M108.321 43.2228C108.49 46.3818 111.104 48.3787 114.977 48.3787C119.116 48.3787 121.718 46.3333 121.718 43.0655C121.718 40.5117 120.23 39.0715 116.647 38.2243L114.723 37.7522C112.472 37.1955 111.552 36.4693 111.552 35.2348C111.552 33.6855 112.992 32.6205 115.098 32.6205C117.204 32.6205 118.644 33.6735 118.802 35.4163H121.44C121.355 32.4026 118.826 30.333 115.135 30.333C111.406 30.333 108.781 32.4026 108.781 35.4163C108.781 37.849 110.269 39.3498 113.477 40.1245L115.74 40.6691C118.003 41.2259 118.959 42.0367 118.959 43.3923C118.959 44.9536 117.374 46.0913 115.171 46.0913C112.871 46.0913 111.189 44.9536 110.995 43.2228H108.321Z" fill="black"/>
<path id="Vector_19" d="M125.167 31.9912V34.9444H123.352V37.0141H125.167V44.6269C125.167 47.1686 126.184 48.1731 128.811 48.1731C129.379 48.1731 129.996 48.1126 130.287 48.04V45.9704C130.118 45.9946 129.67 46.0309 129.391 46.0309C128.29 46.0309 127.782 45.4984 127.782 44.3606V37.0141H130.299V34.9444H127.782V31.9912H125.167Z" fill="black"/>
<path id="Vector_20" d="M138.324 48.2457C142.124 48.2457 144.533 45.6556 144.533 41.5163C144.533 37.3771 142.112 34.7749 138.324 34.7749C134.535 34.7749 132.102 37.3892 132.102 41.5163C132.102 45.6556 134.523 48.2457 138.324 48.2457ZM138.324 46.0671C136.097 46.0671 134.765 44.3848 134.765 41.5163C134.765 38.66 136.097 36.9535 138.324 36.9535C140.551 36.9535 141.87 38.6479 141.87 41.5163C141.87 44.3848 140.551 46.0671 138.324 46.0671Z" fill="black"/>
<path id="Vector_21" d="M147.133 48.0882H149.76V40.2453C149.76 38.3936 150.848 37.1953 152.58 37.1953C153.1 37.1953 153.56 37.268 153.777 37.3527V34.8958C153.572 34.8473 153.245 34.811 152.858 34.811C151.308 34.811 150.098 35.6945 149.686 37.159H149.638V34.9442H147.133V48.0882Z" fill="black"/>
<path id="Vector_22" d="M160.87 36.9171C162.782 36.9171 164.077 38.2727 164.137 40.3182H157.468C157.614 38.2969 158.981 36.9171 160.87 36.9171ZM164.125 44.2395C163.762 45.3894 162.564 46.1155 161.038 46.1155C158.884 46.1155 157.456 44.6147 157.456 42.3393V42.182H166.764V41.2622C166.764 37.2802 164.488 34.7749 160.881 34.7749C157.202 34.7749 154.805 37.4497 154.805 41.5648C154.805 45.6798 157.178 48.2457 160.99 48.2457C163.944 48.2457 166.256 46.5997 166.631 44.2395H164.125Z" fill="black"/>
<path id="Vector_23" d="M39.8323 31.1559C39.7928 26.8701 43.416 24.7851 43.5817 24.688C41.5298 21.7586 38.3493 21.3583 37.2317 21.3264C34.5604 21.0512 31.9694 22.8915 30.6087 22.8915C29.2208 22.8915 27.1254 21.353 24.867 21.3982C21.9609 21.4421 19.2421 23.0897 17.7511 25.648C14.6738 30.8646 16.9688 38.5307 19.917 42.7473C21.3919 44.8124 23.1152 47.1182 25.3708 47.0371C27.5776 46.948 28.4019 45.6594 31.0649 45.6594C33.7036 45.6594 34.4776 47.0371 36.7781 46.9853C39.1464 46.948 40.6375 44.9108 42.0608 42.8271C43.765 40.4602 44.4494 38.1291 44.4766 38.0094C44.4209 37.9908 39.877 36.2927 39.8323 31.1559Z" fill="black"/>
<path id="Vector_24" d="M35.4872 18.5521C36.6741 17.0987 37.4862 15.1213 37.2608 13.1147C35.5429 13.1892 33.3945 14.2783 32.1574 15.6998C31.0628 16.9524 30.0851 19.0055 30.3377 20.9363C32.2674 21.0773 34.2487 19.9829 35.4872 18.5521Z" fill="black"/>
</g>
<defs>
<clipPath id="clip0_25438_4605">
<rect width="185.358" height="61.2031" fill="white" transform="translate(0.555298)"/>
</clipPath>
</defs>
</svg>
