<svg width="19" height="18" viewBox="0 0 19 18" fill="none" xmlns="http://www.w3.org/2000/svg">
<g id="&#229;&#156;&#176;&#231;&#144;&#131; 1">
<path id="Vector" d="M9.5163 1.19873C5.20606 1.19873 1.71887 4.68982 1.71887 9.00006C1.71887 13.3103 5.20606 16.8014 9.5163 16.8014C13.8265 16.8014 17.3215 13.3103 17.3215 9.00006C17.3215 4.68982 13.8265 1.19873 9.5163 1.19873ZM14.9187 5.87953H12.6173C12.3638 4.90436 12.0088 3.9682 11.5407 3.10227C12.9762 3.59373 14.1698 4.58841 14.9187 5.87953ZM9.5202 2.7863C10.1716 3.72246 10.6787 4.76393 11.0103 5.87952H8.03015C8.3617 4.76393 8.86879 3.72246 9.5202 2.7863ZM3.48196 10.5603C3.35324 10.061 3.27913 9.53834 3.27913 9.00006C3.27913 8.46177 3.35324 7.93909 3.48196 7.4398H6.11491C6.05249 7.95078 6.00959 8.46956 6.00959 9.00006C6.00959 9.53056 6.05249 10.0493 6.11881 10.5603H3.48196ZM4.11778 12.1206H6.41918C6.67271 13.0958 7.02768 14.0319 7.49576 14.9017C6.06032 14.4103 4.8667 13.4117 4.11778 12.1206ZM6.41918 5.87953H4.11778C4.8667 4.58842 6.06032 3.58985 7.49575 3.09837C7.02767 3.9682 6.67271 4.90436 6.41918 5.87953ZM9.5202 15.2138C8.87269 14.2777 8.3656 13.2362 8.03015 12.1206H11.0103C10.6748 13.2362 10.1677 14.2776 9.5202 15.2138ZM11.3457 10.5603H7.69469C7.62058 10.0493 7.56987 9.53056 7.56987 9.00006C7.56987 8.46956 7.62058 7.95078 7.69469 7.4398H11.3457C11.4198 7.95078 11.4705 8.46956 11.4705 9.00006C11.4705 9.53056 11.4198 10.0493 11.3457 10.5603ZM11.5446 14.8979C12.0127 14.028 12.3677 13.0958 12.6212 12.1206H14.9226C14.1698 13.4117 12.9762 14.4064 11.5446 14.8979ZM12.9216 10.5603C12.984 10.0493 13.0308 9.53056 13.0308 9.00006C13.0308 8.46956 12.9879 7.95078 12.9216 7.4398H15.5545C15.6832 7.93909 15.7612 8.46177 15.7612 9.00006C15.7612 9.53834 15.6871 10.061 15.5545 10.5603H12.9216Z" fill="white"/>
</g>
</svg>
